<?xml version="1.0" encoding="UTF-8" standalone="no"?>
<!-- Created with Inkscape (http://www.inkscape.org/) -->
<svg
   xmlns:dc="http://purl.org/dc/elements/1.1/"
   xmlns:cc="http://creativecommons.org/ns#"
   xmlns:rdf="http://www.w3.org/1999/02/22-rdf-syntax-ns#"
   xmlns:svg="http://www.w3.org/2000/svg"
   xmlns="http://www.w3.org/2000/svg"
   xmlns:sodipodi="http://sodipodi.sourceforge.net/DTD/sodipodi-0.dtd"
   xmlns:inkscape="http://www.inkscape.org/namespaces/inkscape"
   width="725"
   height="1565"
   id="svg2"
   sodipodi:version="0.32"
   inkscape:version="0.46"
   sodipodi:docname="Ketogenic diet 2.svg"
   inkscape:output_extension="org.inkscape.output.svg.inkscape">
  <metadata
     id="metadata83">
    <rdf:RDF>
      <cc:Work
         rdf:about="">
        <dc:format>image/svg+xml</dc:format>
        <dc:type
           rdf:resource="http://purl.org/dc/dcmitype/StillImage" />
      </cc:Work>
    </rdf:RDF>
  </metadata>
  <defs
     id="defs81">
    <inkscape:perspective
       sodipodi:type="inkscape:persp3d"
       inkscape:vp_x="0 : 782.5 : 1"
       inkscape:vp_y="0 : 1000 : 0"
       inkscape:vp_z="725 : 782.5 : 1"
       inkscape:persp3d-origin="362.5 : 521.66667 : 1"
       id="perspective85" />
    <clipPath
       clipPathUnits="userSpaceOnUse"
       id="clipPath3473">
      <path
         d="M 353.93394,1198.1701 C 178.57431,1199.3271 37.621438,1236.7123 37.621438,1282.6076 C 37.621438,1329.2313 183.08333,1367.0764 362.30894,1367.0764 C 433.51075,1367.0764 499.36276,1361.105 552.90268,1350.9826 L 362.30894,1282.6076 C 362.30894,1282.6076 362.30894,1240.3848 362.30894,1198.1701 C 359.50854,1198.1701 356.71743,1198.1517 353.93394,1198.1701 z"
         id="path3475"
         style="fill:#9999ff;fill-opacity:1" />
    </clipPath>
    <clipPath
       clipPathUnits="userSpaceOnUse"
       id="clipPath3481">
      <path
         d="M 37.815918,1283.0127 C 37.815918,1329.6364 37.815918,1327.1992 37.815918,1373.823 C 37.815918,1420.4467 183.27438,1458.2863 362.5,1458.2863 C 433.59471,1458.2863 499.37608,1452.3321 552.8622,1442.1715 L 552.85188,1351.4228 C 490.12389,1363.6997 426.22951,1366.413 362.5,1367.476 C 183.27438,1367.476 37.815918,1329.6364 37.815918,1283.0127"
         id="path3483"
         style="fill:#33334d" />
    </clipPath>
    <clipPath
       clipPathUnits="userSpaceOnUse"
       id="clipPath3526">
      <rect
         id="rect3528"
         style="fill:none;fill-opacity:1;stroke:none;stroke-width:2"
         y="1517.3177"
         x="563.58508"
         height="22.076603"
         width="22.076603" />
    </clipPath>
  </defs>
  <sodipodi:namedview
     inkscape:window-height="964"
     inkscape:window-width="1280"
     inkscape:pageshadow="2"
     inkscape:pageopacity="0.0"
     guidetolerance="10.0"
     gridtolerance="10.0"
     objecttolerance="10.0"
     borderopacity="1.0"
     bordercolor="#666666"
     pagecolor="#ffffff"
     id="base"
     showgrid="false"
     inkscape:zoom="1"
     inkscape:cx="451.78039"
     inkscape:cy="214.19235"
     inkscape:window-x="-4"
     inkscape:window-y="-4"
     inkscape:current-layer="svg2" />
  <path
     d="M 362.5,96 C 178.96,96 30,134.752 30,182.5 C 30,201.41307 53.365734,218.91531 92.99999,233.15625 C 92.999989,233.15626 362.5,182.5 362.5,182.5 C 362.5,139.25 362.5,96 362.5,96 z"
     id="path4"
     fill="#99f" />
  <path
     d="M 93.005566,233.15563 C 53.37131,218.91469 30,201.41307 30,182.5 C 30,230.248 30,227.752 30,275.5 C 30,291.19542 46.09552,305.9188 74.22397,318.61325 C 80.39622,321.33391 86.631843,323.91057 92.996417,326.15234 L 93.005566,233.15563 z"
     id="path6"
     fill="#4d4d80" />
  <path
     d="M 695,182.5 C 695,230.248 546.04,269 362.5,269 C 362.5,269 362.5,96 362.5,96 C 546.04,96 695,134.752 695,182.5"
     id="path8"
     fill="#ffc" />
  <path
     d="M 362.5,362 C 362.5,362 362.5,269 362.5,269 C 546.04,269 695,230.248 695,182.5 C 695,204.08498 695,211.2113 695,275.5 C 695,323.248 546.04,362 362.5,362 z"
     id="path10"
     fill="#808066" />
  <path
     d="M 362.5,269 L 362.5,362 C 251.65491,362 153.4222,347.86599 92.996417,326.15234 L 93.005566,233.15563 C 153.43211,254.86741 251.66051,269 362.5,269 z"
     id="path12"
     fill="#4d1a33" />
  <path
     d="M 93.005566,233.15563 C 93.005566,233.15563 362.5,182.5 362.5,182.5 L 362.5,269 C 251.66051,269 153.43211,254.86741 93.005566,233.15563 z"
     id="path14"
     fill="#936" />
  <path
     d="M 362.5,182.5 L 93.001031,233.65283 L 93.001031,325.98214 M 695,182.5 C 695,230.248 546.04,269 362.5,269 C 178.96,269 30,230.248 30,182.5 M 695,182.5 C 695,230.248 695,227.752 695,275.5 C 695,323.248 546.04,362 362.5,362 C 178.96,362 30,323.248 30,275.5 C 30,227.752 30,230.248 30,182.5 C 30,134.752 178.96,96 362.5,96 C 546.04,96 695,134.752 695,182.5 z M 362.5,362 C 362.5,362 362.5,96 362.5,96 C 362.5,96 362.5,362 362.5,362 z"
     style="fill:none;stroke:#000;stroke-width:2"
     id="path16" />
  <path
     d="M 695,547.83752 C 695,577.20782 638.58638,603.18402 552.48512,618.82162 L 552.48707,711.82122 C 638.61707,696.18462 695,670.21362 695,640.83752 C 695,593.08952 695,595.58552 695,547.83752 z"
     id="path18"
     fill="#4d1a33" />
  <path
     d="M 695,547.83752 C 695,509.47512 598.84525,476.91972 465.79935,465.65882 L 362.5,547.83752 L 552.48734,618.65932 L 552.64049,618.71242 C 638.75084,603.12302 695,577.17872 695,547.83752 z"
     id="path20"
     fill="#936" />
  <path
     d="M 362.5,547.83752 L 465.94218,465.67092 C 433.52248,462.84362 398.6832,461.33752 362.5,461.33752 C 362.5,461.33752 362.5,504.58752 362.5,547.83752 z"
     id="path22"
     fill="#ffc" />
  <path
     d="M 552.74044,618.77522 C 498.82659,628.58242 433.23105,634.33752 362.5,634.33752 C 178.96,634.33752 30,595.58552 30,547.83752 C 30,595.58552 30,593.08952 30,640.83752 C 30,688.58552 178.96,727.33752 362.5,727.33752 C 433.12029,727.33752 498.62114,721.60042 552.48721,711.74022 L 552.48734,618.65932"
     id="path24"
     fill="#4d4d80" />
  <path
     d="M 552.62585,618.71502 L 362.5,547.83752 C 362.5,504.58752 362.5,461.33752 362.5,461.33752 C 178.96,461.33752 30,500.08952 30,547.83752 C 30,595.58552 30,500.08952 30,547.83752 C 30,595.58552 178.96,634.33752 362.5,634.33752 C 433.24151,634.33752 498.70749,628.52502 552.62585,618.71502 z"
     id="path26"
     fill="#99f" />
  <path
     d="M 695,547.83752 C 695,595.58552 546.04,634.33752 362.5,634.33752 C 178.96,634.33752 30,595.58552 30,547.83752 M 695,547.83752 C 695,595.58552 695,593.08952 695,640.83752 C 695,688.58552 546.04,727.33752 362.5,727.33752 C 178.96,727.33752 30,688.58552 30,640.83752 C 30,593.08952 30,595.58552 30,547.83752 C 30,500.08952 178.96,461.33752 362.5,461.33752 C 546.04,461.33752 695,500.08952 695,547.83752 z M 552.48734,711.65932 L 552.48734,618.65932 L 362.5,547.83752 C 362.5,504.58752 362.5,461.33752 362.5,461.33752 M 362.5,547.83752 L 465.74289,465.71412"
     style="fill:none;stroke:#000;stroke-width:2"
     id="path28" />
  <path
     d="M 34.987488,918.37266 C 34.987488,965.40444 34.987488,962.94588 34.987488,1009.9777 C 34.987488,1057.0095 181.71309,1095.1802 362.5,1095.1802 C 543.2869,1095.1802 690.01251,1057.0095 690.01251,1009.9777 C 690.01251,962.94588 690.01251,965.40444 690.01251,918.37266 C 690.01251,965.40444 543.2869,1003.5752 362.5,1003.5752 C 181.71309,1003.5752 34.987488,965.40444 34.987488,918.37266 z"
     id="path30"
     fill="#4d4d80" />
  <path
     d="M 362.49701,833.15625 C 181.71011,833.15625 34.997013,871.3432 34.997012,918.375 C 34.997012,965.40678 181.7101,1003.5625 362.49701,1003.5625 C 543.28392,1003.5625 689.99701,965.40676 689.99701,918.375 C 689.99701,890.14911 637.14988,865.10111 555.80951,849.59375 L 362.49701,918.375 C 362.497,894.50533 362.49701,868.00236 362.49701,833.15625 z"
     id="path32"
     fill="#99f" />
  <path
     d="M 362.5,918.37266 C 362.5,875.77141 362.5,833.17016 362.5,833.17016 C 374.28744,833.17016 385.93008,833.33243 397.39989,833.64836 L 362.5,918.37266 z"
     id="path34"
     fill="#ffc" />
  <path
     d="M 555.85951,849.61155 C 601.22364,858.26245 555.84966,849.60776 555.84966,849.60776 L 362.5,918.37266 L 397.39989,833.64836 C 456.26586,835.2733 510.49538,840.96065 555.85951,849.61155 z"
     id="path36"
     fill="#936" />
  <path
     d="M 362.5,918.37266 L 397.36715,833.73511 M 690.01251,918.37266 C 690.01251,965.40444 543.2869,1003.5752 362.5,1003.5752 C 181.71309,1003.5752 34.987488,965.40444 34.987488,918.37266 M 690.01251,918.37266 C 690.01251,965.40444 690.01251,962.94588 690.01251,1009.9777 C 690.01251,1057.0095 543.2869,1095.1802 362.5,1095.1802 C 181.71309,1095.1802 34.987488,1057.0095 34.987488,1009.9777 C 34.987488,962.94588 34.987488,965.40444 34.987488,918.37266 C 34.987488,871.34088 181.71309,833.17016 362.5,833.17016 C 543.2869,833.17016 690.01251,871.34088 690.01251,918.37266 z M 555.97093,849.56463 L 362.5,918.37266 C 362.5,875.77141 362.5,833.17016 362.5,833.17016"
     style="fill:none;stroke:#000;stroke-width:2"
     id="path38" />
  <text
     x="151.59125"
     y="63.10516"
     style="font-size:43px;font-family:Trebuchet MS"
     id="text40">Typical American diet</text>
  <text
     x="130.84711"
     y="433.10516"
     style="font-size:43px;font-family:Trebuchet MS"
     id="text42">Atkins (induction phase)</text>
  <text
     x="119.0473"
     y="803.04303"
     style="font-size:43px;font-family:Trebuchet MS"
     id="text44">Classic ketogenic diet 4:1</text>
  <text
     x="177.26947"
     y="1170.793"
     style="font-size:43px;font-family:Trebuchet MS"
     id="text46">MCT ketogenic diet</text>
  <path
     d="M 354.13426,1198.5625 C 178.77463,1199.7195 37.821762,1237.1047 37.821762,1283 C 37.821762,1329.6237 183.28365,1367.4688 362.50926,1367.4688 C 433.71107,1367.4688 499.56308,1361.4974 553.10301,1351.375 L 362.50926,1283 C 362.50926,1283 362.50926,1240.7772 362.50926,1198.5625 C 359.70886,1198.5625 356.91775,1198.5441 354.13426,1198.5625 z"
     id="path48"
     style="fill:#9999ff;fill-opacity:1"
     fill="#669" />
  <path
     d="M 37.815918,1283.0127 C 37.815918,1329.6364 37.815918,1327.1992 37.815918,1373.823 C 37.815918,1420.4467 183.27438,1458.2863 362.5,1458.2863 C 433.59471,1458.2863 499.37608,1452.3321 552.8622,1442.1715 L 552.85188,1351.4228 C 490.12389,1363.6997 426.22951,1366.413 362.5,1367.476 C 183.27438,1367.476 37.815918,1329.6364 37.815918,1283.0127"
     id="path50"
     style="fill:#4d4d80;fill-opacity:1"
     fill="#33334d" />
  <path
     d="M 677.44244,1303.6134 C 658.63759,1323.0965 613.78571,1339.9119 553.10632,1351.3797 L 362.5,1283.0127 L 677.44244,1303.6134 z"
     id="path52"
     fill="#99f" />
  <path
     d="M 552.85125,1442.2439 C 613.01313,1430.8934 657.64056,1414.3042 676.82103,1395.06 L 676.81108,1304.2944 C 641.97077,1333.3902 596.03505,1342.0501 552.85228,1351.4248 L 552.85125,1442.2439 z"
     id="path54"
     fill="#4d4d80" />
  <path
     d="M 676.81605,1395.0678 C 683.57984,1388.2816 687.18408,1381.1571 687.18408,1373.823 C 687.18408,1327.1992 687.18408,1329.6364 687.18408,1283.0127 C 687.18408,1290.3576 683.57415,1297.4845 676.80102,1304.2871 L 676.81605,1395.0678 z"
     id="path56"
     fill="#4d1a33" />
  <path
     d="M 677.50045,1303.557 L 362.5,1283.0127 L 663.88795,1251.5645 C 678.91284,1261.2764 687.18408,1271.8948 687.18408,1283.0127 C 687.18408,1294.8695 677.50045,1303.557 677.50045,1303.557 z"
     id="path58"
     fill="#993366" />
  <path
     d="M 362.5,1283.0127 C 362.5,1240.781 362.5,1198.5494 362.5,1198.5494 C 468.22477,1200.1412 567.3739,1205.6314 663.92616,1251.5759 L 362.5,1283.0127"
     id="path60"
     fill="#ffc" />
  <path
     d="M 687.18408,1283.0127 C 687.18408,1329.6364 541.7256,1367.476 362.5,1367.476 C 183.27438,1367.476 37.815918,1329.6364 37.815918,1283.0127 M 687.18408,1283.0127 C 687.18408,1329.6364 687.18408,1327.1992 687.18408,1373.823 C 687.18408,1420.4467 541.7256,1458.2863 362.5,1458.2863 C 183.27438,1458.2863 37.815918,1420.4467 37.815918,1373.823 C 37.815918,1327.1992 37.815918,1329.6364 37.815918,1283.0127 C 37.815918,1236.3889 183.27438,1198.5494 362.5,1198.5494 C 541.7256,1198.5494 687.18408,1236.3889 687.18408,1283.0127 z M 362.5,1198.5494 C 362.5,1198.5494 362.5,1240.781 362.5,1283.0127 L 552.85188,1351.2821 L 552.85188,1442.1056 M 664.63426,1251.5 L 362.5,1283.0127 L 676.81108,1303.56 L 676.81108,1395.5756"
     style="fill:none;stroke:#000;stroke-width:2"
     id="path62" />
  <path
     id="path2470"
     style="fill:none;fill-rule:evenodd;stroke:#000000;stroke-width:2;stroke-linecap:butt;stroke-linejoin:miter;stroke-miterlimit:4;stroke-dasharray:none;stroke-opacity:1"
     d="M 624.17155,1380.3558 L 166.44452,1644.6246 M 618.17155,1369.9635 L 160.44452,1634.2323 M 612.17155,1359.5712 L 154.44452,1623.84 M 606.17155,1349.1789 L 148.44452,1613.4477 M 600.17155,1338.7866 L 142.44452,1603.0554 M 594.17155,1328.3943 L 136.44452,1592.6631 M 588.17155,1318.0019 L 130.44452,1582.2708 M 582.17155,1307.6096 L 124.44452,1571.8785 M 576.17155,1297.2173 L 118.44452,1561.4862 M 570.17155,1286.825 L 112.44452,1551.0939 M 564.17155,1276.4327 L 106.44452,1540.7016 M 558.17155,1266.0404 L 100.44452,1530.3093 M 552.17155,1255.6481 L 94.444518,1519.917 M 546.17155,1245.2558 L 88.444518,1509.5247 M 540.17155,1234.8635 L 82.444518,1499.1323 M 534.17155,1224.4712 L 76.444518,1488.74 M 528.17155,1214.0789 L 70.444518,1478.3477 M 522.17155,1203.6866 L 64.444518,1467.9554 M 516.17155,1193.2943 L 58.444518,1457.5631 M 510.17155,1182.902 L 52.444518,1447.1708 M 504.17155,1172.5097 L 46.444518,1436.7785 M 498.17155,1162.1174 L 40.444518,1426.3862 M 492.17155,1151.7251 L 34.444518,1415.9939 M 486.17155,1141.3328 L 28.444518,1405.6016 M 480.17155,1130.9405 L 22.444518,1395.2093 M 474.17155,1120.5482 L 16.444518,1384.817 M 468.17155,1110.1559 L 10.444518,1374.4247 M 462.17155,1099.7636 L 4.444518,1364.0324 M 456.17155,1089.3713 L -1.555482,1353.6401 M 450.17155,1078.9789 L -7.555482,1343.2478 M 444.17155,1068.5866 L -13.555482,1332.8555 M 438.17155,1058.1943 L -19.555482,1322.4632 M 432.17155,1047.802 L -25.555482,1312.0709 M 426.17155,1037.4097 L -31.555482,1301.6786 M 420.17155,1027.0174 L -37.555482,1291.2863 M 414.17155,1016.6251 L -43.555482,1280.8939"
     clip-path="url(#clipPath3473)" />
  <path
     id="path3477"
     style="fill:none;fill-rule:evenodd;stroke:#000000;stroke-width:1.99999988;stroke-linecap:butt;stroke-linejoin:miter;stroke-miterlimit:4;stroke-dasharray:none;stroke-opacity:1"
     d="M 454.67357,1790.8307 L -142.54256,1446.0277 M 460.67359,1780.4384 L -136.54254,1435.6354 M 466.67351,1770.0461 L -130.54252,1425.2431 M 472.67353,1759.6538 L -124.5425,1414.8508 M 478.67354,1749.2615 L -118.54258,1404.4585 M 484.67356,1738.8692 L -112.54256,1394.0662 M 490.67357,1728.4769 L -106.54255,1383.6739 M 496.67359,1718.0846 L -100.54253,1373.2816 M 502.67361,1707.6923 L -94.542598,1362.8893 M 508.67363,1697.3 L -88.542588,1352.497 M 514.67365,1686.9077 L -82.542568,1342.1047 M 520.67357,1676.5154 L -76.542548,1331.7124 M 526.67359,1666.1231 L -70.542528,1321.3201 M 532.67361,1655.7308 L -64.542608,1310.9278 M 538.67363,1645.3385 L -58.542498,1300.5355 M 544.67355,1634.9462 L -52.542478,1290.1431 M 550.67357,1624.5539 L -46.542458,1279.7508 M 556.67358,1614.1615 L -40.542538,1269.3586 M 562.67361,1603.7693 L -34.542518,1258.9662 M 568.67353,1593.377 L -28.542498,1248.5739 M 574.67354,1582.9847 L -22.542488,1238.1816 M 580.67356,1572.5923 L -16.542558,1227.7894 M 586.67358,1562.2 L -10.542548,1217.397 M 592.6735,1551.8078 L -4.5425284,1207.0047 M 598.67352,1541.4154 L 1.4574916,1196.6124 M 604.67354,1531.0231 L 7.4574116,1186.2201 M 610.67356,1520.6308 L 13.457432,1175.8278 M 616.67358,1510.2385 L 19.457452,1165.4355 M 622.6735,1499.8462 L 25.457472,1155.0432 M 628.67361,1489.4539 L 31.457492,1144.6509 M 634.67363,1479.0616 L 37.457412,1134.2586 M 640.67355,1468.6693 L 43.457432,1123.8663 M 646.67357,1458.277 L 49.457452,1113.474 M 652.67358,1447.8847 L 55.457462,1103.0817 M 658.6736,1437.4924 L 61.457392,1092.6894 M 664.67352,1427.1001 L 67.457492,1082.2971"
     sodipodi:nodetypes="cccccccccccccccccccccccccccccccccccccccccccccccccccccccccccccccccccccccc"
     clip-path="url(#clipPath3481)" />
  <rect
     width="21"
     height="21"
     x="20.512196"
     y="1517.8561"
     style="fill:#ffffcc;stroke:#000000;stroke-width:2"
     id="rect64" />
  <text
     x="51.118767"
     y="1538.7946"
     style="font-size:28px;font-family:Trebuchet MS"
     id="text66">Carbohydrate</text>
  <rect
     width="21"
     height="21"
     x="244.94966"
     y="1517.8561"
     style="fill:#993366;fill-opacity:1;stroke:#000000;stroke-width:2"
     id="rect68" />
  <text
     x="274.5563"
     y="1538.7946"
     style="font-size:28px;font-family:Trebuchet MS"
     id="text70">Protein</text>
  <rect
     width="21"
     height="21"
     x="581.51215"
     y="1517.8561"
     style="fill:#9999ff;fill-opacity:1;stroke:#000000;stroke-width:2"
     id="rect72" />
  <text
     x="612.11865"
     y="1538.7946"
     style="font-size:28px;font-family:Trebuchet MS"
     id="text74">MCT oil</text>
  <rect
     width="21"
     height="21"
     x="388.98096"
     y="1517.8561"
     style="fill:#9999ff;fill-opacity:1;stroke:#000000;stroke-width:2"
     id="rect76" />
  <text
     x="419.58759"
     y="1538.7946"
     style="font-size:28px;font-family:Trebuchet MS"
     id="text78">Dietary fat</text>
  <path
     id="path3513"
     style="fill:none;fill-rule:evenodd;stroke:#000000;stroke-width:2;stroke-linecap:butt;stroke-linejoin:miter;stroke-miterlimit:4;stroke-dasharray:none;stroke-opacity:1"
     d="M 565.44248,1544.1003 L 590.82487,1529.4457 M 562.44245,1538.9041 L 587.82484,1524.2495 M 559.44242,1533.7078 L 584.82481,1519.0532 M 556.44239,1528.5116 L 581.82478,1513.857"
     clip-path="url(#clipPath3526)"
     transform="translate(17.388767,0)" />
</svg>
